PathFileType	4	(X/Y/Z)	output.trc
DataRate	CameraRate	NumFrames	NumMarkers	Units	OrigDataRate	OrigDataStartFrame	OrigNumFrames
100	100	10	23	m	100	939	3753
Frame#	Time	C7			T8			EL			EM			US			RS			AA			Fore_Clus_1			Fore_Clus_2			Fore_Clus_3			Fore_Clus_4			Hum_Clus_1			Hum_Clus_2			Hum_Clus_3			Hum_Clus_4			Thor_Clus_1			Thor_Clus_2			Thor_Clus_3			Thor_Clus_4			IJ			PX			GH			Thor_Clus_5		
		X1	Y1	Z1	X2	Y2	Z2	X3	Y3	Z3	X4	Y4	Z4	X5	Y5	Z5	X6	Y6	Z6	X7	Y7	Z7	X8	Y8	Z8	X9	Y9	Z9	X10	Y10	Z10	X11	Y11	Z11	X12	Y12	Z12	X13	Y13	Z13	X14	Y14	Z14	X15	Y15	Z15	X16	Y16	Z16	X17	Y17	Z17	X18	Y18	Z18	X19	Y19	Z19	X20	Y20	Z20	X21	Y21	Z21	X22	Y22	Z22	X23	Y23	Z23
938	9.380000	-0.034758	1.571362	-0.065388	-0.037391	1.327243	-0.105168	-0.248620	1.174152	0.071006	-0.187059	1.164531	0.025685	-0.228348	0.902413	0.125727	-0.170429	0.911323	0.155015	-0.205515	1.495797	0.033599	-0.244986	0.956680	0.149984	-0.240169	0.903826	0.162713	-0.217932	0.909668	0.178723	-0.208723	0.966247	0.175561	-0.241150	1.285021	0.126724	-0.268693	1.292246	0.073646	-0.276923	1.355201	0.074368	-0.243888	1.359145	0.122849	0.093971	1.474534	0.098310	0.048534	1.426126	0.150414	0.054398	1.474121	0.118285	0.106098	1.426959	0.121273	0.032451	1.501634	0.056789	0.063367	1.321910	0.113484	-0.171447	1.478364	0.057438	0.043231	1.447436	0.139882
939	9.390000	-0.034739	1.571337	-0.065327	-0.037356	1.327219	-0.105115	-0.248621	1.174159	0.070993	-0.187055	1.164541	0.025678	-0.228377	0.902412	0.125678	-0.170457	0.911317	0.154966	-0.205502	1.495761	0.033641	-0.245025	0.956657	0.149947	-0.240198	0.903806	0.162664	-0.217954	0.909647	0.178688	-0.208753	0.966222	0.175514	-0.241157	1.285013	0.126728	-0.268701	1.292247	0.073648	-0.276918	1.355194	0.074385	-0.243891	1.359133	0.122870	0.093986	1.474509	0.098392	0.048532	1.426088	0.150477	0.054405	1.474086	0.118351	0.106104	1.426926	0.121333	0.032462	1.501608	0.056854	0.063381	1.321884	0.113547	-0.171431	1.478369	0.057481	0.043274	1.447343	0.139987
940	9.400000	-0.034718	1.571321	-0.065262	-0.037328	1.327206	-0.105064	-0.248621	1.174165	0.070979	-0.187048	1.164552	0.025671	-0.228406	0.902410	0.125630	-0.170485	0.911309	0.154918	-0.205488	1.495737	0.033689	-0.245037	0.956670	0.149886	-0.240213	0.903805	0.162608	-0.217973	0.909645	0.178641	-0.208782	0.966225	0.175490	-0.241155	1.285016	0.126738	-0.268688	1.292272	0.073644	-0.276906	1.355216	0.074389	-0.243885	1.359145	0.122886	0.093997	1.474491	0.098446	0.048562	1.426082	0.150525	0.054410	1.474062	0.118410	0.106113	1.426898	0.121409	0.032474	1.501587	0.056920	0.063392	1.321861	0.113605	-0.171415	1.478374	0.057522	0.043296	1.447341	0.140032
941	9.410000	-0.034694	1.571318	-0.065192	-0.037307	1.327206	-0.105015	-0.248620	1.174172	0.070964	-0.187040	1.164563	0.025665	-0.228430	0.902409	0.125582	-0.170509	0.911304	0.154871	-0.205472	1.495729	0.033741	-0.245079	0.956639	0.149859	-0.240247	0.903779	0.162563	-0.218007	0.909611	0.178586	-0.208810	0.966176	0.175447	-0.241167	1.285000	0.126737	-0.268689	1.292252	0.073647	-0.276902	1.355210	0.074401	-0.243894	1.359123	0.122900	0.094014	1.474472	0.098509	0.048544	1.426032	0.150591	0.054421	1.474009	0.118481	0.106112	1.426881	0.121470	0.032489	1.501571	0.056988	0.063399	1.321839	0.113660	-0.171399	1.478380	0.057562	0.043288	1.447301	0.140091
942	9.420000	-0.034668	1.571319	-0.065121	-0.037288	1.327211	-0.104969	-0.248618	1.174179	0.070949	-0.187031	1.164573	0.025659	-0.228455	0.902406	0.125536	-0.170534	0.911297	0.154825	-0.205454	1.495726	0.033795	-0.245090	0.956647	0.149798	-0.240261	0.903779	0.162516	-0.218022	0.909618	0.178544	-0.208839	0.966186	0.175413	-0.241174	1.285013	0.126739	-0.268675	1.292278	0.073638	-0.276895	1.355226	0.074398	-0.243884	1.359145	0.122896	0.094023	1.474455	0.098565	0.048558	1.426027	0.150639	0.054413	1.473994	0.118519	0.106123	1.426864	0.121541	0.032505	1.501558	0.057056	0.063405	1.321819	0.113711	-0.171384	1.478385	0.057601	0.043303	1.447310	0.140143
943	9.430000	-0.034639	1.571325	-0.065050	-0.037271	1.327222	-0.104925	-0.248614	1.174184	0.070933	-0.187020	1.164583	0.025653	-0.228477	0.902404	0.125490	-0.170556	0.911290	0.154780	-0.205435	1.495732	0.033849	-0.245117	0.956625	0.149771	-0.240288	0.903760	0.162478	-0.218056	0.909579	0.178498	-0.208856	0.966155	0.175376	-0.241183	1.284996	0.126731	-0.268672	1.292267	0.073638	-0.276880	1.355222	0.074398	-0.243890	1.359123	0.122908	0.094029	1.474447	0.098629	0.048548	1.425997	0.150701	0.054427	1.473956	0.118600	0.106146	1.426843	0.121607	0.032524	1.501546	0.057122	0.063411	1.321800	0.113760	-0.171368	1.478390	0.057640	0.043309	1.447276	0.140194
944	9.440000	-0.034608	1.571331	-0.064982	-0.037253	1.327232	-0.104882	-0.248610	1.174189	0.070918	-0.187008	1.164591	0.025647	-0.228496	0.902400	0.125445	-0.170576	0.911284	0.154738	-0.205414	1.495737	0.033900	-0.245128	0.956634	0.149712	-0.240298	0.903764	0.162432	-0.218057	0.909596	0.178453	-0.208865	0.966148	0.175335	-0.241165	1.285009	0.126738	-0.268656	1.292278	0.073625	-0.276862	1.355228	0.074409	-0.243879	1.359128	0.122924	0.094040	1.474422	0.098710	0.048568	1.425994	0.150755	0.054424	1.473939	0.118659	0.106156	1.426826	0.121674	0.032544	1.501536	0.057187	0.063417	1.321781	0.113807	-0.171352	1.478394	0.057678	0.043332	1.447265	0.140241
945	9.450000	-0.034577	1.571332	-0.064919	-0.037229	1.327236	-0.104840	-0.248604	1.174192	0.070903	-0.186994	1.164599	0.025642	-0.228515	0.902394	0.125402	-0.170595	0.911274	0.154698	-0.205392	1.495737	0.033946	-0.245154	0.956609	0.149705	-0.240328	0.903740	0.162388	-0.218090	0.909558	0.178420	-0.208907	0.966121	0.175309	-0.241169	1.284990	0.126740	-0.268653	1.292265	0.073637	-0.276860	1.355219	0.074418	-0.243884	1.359106	0.122942	0.094053	1.474408	0.098777	0.048569	1.425950	0.150810	0.054443	1.473895	0.118683	0.106174	1.426798	0.121737	0.032565	1.501523	0.057248	0.063427	1.321763	0.113856	-0.171334	1.478397	0.057716	0.043325	1.447248	0.140294
946	9.460000	-0.034543	1.571327	-0.064863	-0.037200	1.327234	-0.104798	-0.248597	1.174194	0.070890	-0.186981	1.164604	0.025636	-0.228529	0.902388	0.125361	-0.170611	0.911267	0.154662	-0.205368	1.495732	0.033985	-0.245163	0.956621	0.149651	-0.240334	0.903740	0.162342	-0.218081	0.909574	0.178379	-0.208912	0.966133	0.175286	-0.241147	1.284996	0.126741	-0.268633	1.292282	0.073632	-0.276837	1.355226	0.074423	-0.243863	1.359117	0.122960	0.094061	1.474382	0.098836	0.048586	1.425956	0.150865	0.054447	1.473901	0.118764	0.106183	1.426793	0.121797	0.032587	1.501509	0.057306	0.063439	1.321744	0.113905	-0.171315	1.478397	0.057755	0.043357	1.447245	0.140341
947	9.470000	-0.034511	1.571310	-0.064815	-0.037162	1.327217	-0.104755	-0.248588	1.174193	0.070878	-0.186966	1.164608	0.025631	-0.228542	0.902378	0.125324	-0.170627	0.911255	0.154629	-0.205344	1.495711	0.034015	-0.245187	0.956588	0.149618	-0.240363	0.903723	0.162318	-0.218106	0.909542	0.178354	-0.208939	0.966087	0.175263	-0.241152	1.284978	0.126755	-0.268630	1.292270	0.073649	-0.276824	1.355218	0.074446	-0.243858	1.359097	0.122976	0.094084	1.474372	0.098881	0.048593	1.425927	0.150924	0.054457	1.473873	0.118797	0.106192	1.426769	0.121872	0.032608	1.501490	0.057359	0.063457	1.321725	0.113957	-0.171293	1.478396	0.057794	0.043352	1.447220	0.140386
